<svg width="44" height="17" viewBox="0 0 44 17" fill="none" xmlns="http://www.w3.org/2000/svg">
<path d="M9.7959 0.417992V6.54999C8.8719 5.35299 7.4859 4.76499 5.9109 4.76499C2.6559 4.76499 0.282898 7.03299 0.282898 10.435C0.282898 13.837 2.6559 16.126 5.9109 16.126C7.5489 16.126 8.9769 15.496 9.8799 14.236V16H11.8119V0.417992H9.7959ZM6.0789 14.362C3.9369 14.362 2.3199 12.808 2.3199 10.435C2.3199 8.06199 3.9369 6.52899 6.0789 6.52899C8.1999 6.52899 9.8169 8.06199 9.8169 10.435C9.8169 12.808 8.1999 14.362 6.0789 14.362Z" fill="#F99954"/>
<path d="M22.9844 4.86999V10.624C22.9844 13.018 21.6404 14.32 19.5404 14.32C17.6294 14.32 16.5374 13.228 16.5374 11.044V4.86999H14.5214V11.275C14.5214 14.551 16.4324 16.126 19.3094 16.126C20.8844 16.126 22.2704 15.475 23.0894 14.32V16H25.0004V4.86999H22.9844Z" fill="#F99954"/>
<path d="M31.9123 1.95099C32.5003 1.95099 33.0463 2.16099 33.4663 2.47599L34.0753 0.942993C33.5083 0.501992 32.6683 0.291992 31.8073 0.291992C29.4343 0.291992 28.1323 1.71999 28.1323 3.88299V4.86999H26.2423V6.52899H28.1323V16H30.1483V6.52899H33.3403V4.86999H30.1063V3.90399C30.1063 2.62299 30.7153 1.95099 31.9123 1.95099Z" fill="#F99954"/>
<path d="M34.5356 3.88299V4.86999H32.6456V6.52899H34.5356V16H36.5516V6.52899H39.7436V4.86999H36.5096V3.90399C36.5096 2.62299 37.1186 1.95099 38.3156 1.95099C38.9036 1.95099 39.4496 2.16099 39.8696 2.47599L40.4786 0.942993C39.9116 0.501992 39.0716 0.291992 38.2106 0.291992C35.8376 0.291992 34.5356 1.71999 34.5356 3.88299ZM41.6546 0.417992V16H43.6706V0.417992H41.6546Z" fill="#F99954"/>
</svg>
